<svg id="visual" viewBox="0 0 1024 600" width="1024" height="600" xmlns="http://www.w3.org/2000/svg" xmlns:xlink="http://www.w3.org/1999/xlink" version="1.1"><rect x="0" y="0" width="1024" height="600" fill="#172b35"></rect><defs><linearGradient id="grad1_0" x1="41.4%" y1="0%" x2="100%" y2="100%"><stop offset="15.866666666666665%" stop-color="#90b6ee" stop-opacity="1"></stop><stop offset="84.13333333333333%" stop-color="#90b6ee" stop-opacity="1"></stop></linearGradient></defs><defs><linearGradient id="grad1_1" x1="41.4%" y1="0%" x2="100%" y2="100%"><stop offset="15.866666666666665%" stop-color="#90b6ee" stop-opacity="1"></stop><stop offset="84.13333333333333%" stop-color="#172b35" stop-opacity="1"></stop></linearGradient></defs><defs><linearGradient id="grad2_0" x1="0%" y1="0%" x2="58.6%" y2="100%"><stop offset="15.866666666666665%" stop-color="#90b6ee" stop-opacity="1"></stop><stop offset="84.13333333333333%" stop-color="#90b6ee" stop-opacity="1"></stop></linearGradient></defs><defs><linearGradient id="grad2_1" x1="0%" y1="0%" x2="58.6%" y2="100%"><stop offset="15.866666666666665%" stop-color="#172b35" stop-opacity="1"></stop><stop offset="84.13333333333333%" stop-color="#90b6ee" stop-opacity="1"></stop></linearGradient></defs><g transform="translate(1024, 0)"><path d="M0 356.1C-10.8 310.7 -21.6 265.4 -37.9 263.3C-54.1 261.2 -75.7 302.2 -90.7 309C-105.7 315.7 -114 288.1 -127.1 278.3C-140.3 268.6 -158.2 276.5 -181.7 282.7C-205.1 288.8 -234 293 -233.2 269.1C-232.4 245.2 -201.9 193.1 -192 166.3C-182.1 139.6 -192.7 138.2 -212.8 136.8C-232.9 135.4 -262.4 133.9 -265.6 121.3C-268.8 108.7 -245.7 85 -237 69.6C-228.3 54.2 -234.1 47.1 -256.4 36.9C-278.6 26.6 -317.3 13.3 -356.1 0L0 0Z" fill="#486e8c"></path><path d="M0 178C-5.4 155.4 -10.8 132.7 -18.9 131.6C-27 130.6 -37.9 151.1 -45.4 154.5C-52.8 157.9 -57 144.1 -63.6 139.2C-70.1 134.3 -79.1 138.3 -90.8 141.3C-102.5 144.4 -117 146.5 -116.6 134.5C-116.2 122.6 -100.9 96.5 -96 83.2C-91 69.8 -96.4 69.1 -106.4 68.4C-116.5 67.7 -131.2 66.9 -132.8 60.7C-134.4 54.4 -122.8 42.5 -118.5 34.8C-114.2 27.1 -117.1 23.5 -128.2 18.4C-139.3 13.3 -158.7 6.7 -178 0L0 0Z" fill="#90b6ee"></path></g><g transform="translate(0, 600)"><path d="M0 -356.1C18.1 -359.2 36.3 -362.4 50.1 -348.4C63.9 -334.5 73.4 -303.4 85.6 -291.7C97.9 -279.9 112.8 -287.4 135.8 -297.4C158.9 -307.5 189.9 -320 190.3 -296.1C190.7 -272.2 160.4 -211.9 170.3 -196.5C180.1 -181.1 230.2 -210.6 232.8 -201.7C235.3 -192.8 190.4 -145.4 212.8 -136.8C235.3 -128.2 325.2 -158.3 323.9 -147.9C322.5 -137.5 229.9 -86.5 223.6 -65.6C217.2 -44.7 297.1 -53.9 333.6 -48C370 -42 363 -21 356.1 0L0 0Z" fill="#486e8c"></path><path d="M0 -178C9.1 -179.6 18.1 -181.2 25 -174.2C32 -167.2 36.7 -151.7 42.8 -145.8C48.9 -140 56.4 -143.7 67.9 -148.7C79.4 -153.7 95 -160 95.2 -148.1C95.3 -136.1 80.2 -105.9 85.1 -98.2C90.1 -90.5 115.1 -105.3 116.4 -100.8C117.7 -96.4 95.2 -72.7 106.4 -68.4C117.7 -64.1 162.6 -79.2 161.9 -74C161.3 -68.8 115 -43.3 111.8 -32.8C108.6 -22.4 148.6 -26.9 166.8 -24C185 -21 181.5 -10.5 178 0L0 0Z" fill="#90b6ee"></path></g></svg>