<svg id="visual" viewBox="0 0 924 500" width="924" height="500" xmlns="http://www.w3.org/2000/svg" xmlns:xlink="http://www.w3.org/1999/xlink" version="1.1"><rect x="0" y="0" width="924" height="500" fill="#172b35"></rect><path d="M0 337L12.8 341.7C25.7 346.3 51.3 355.7 77 364C102.7 372.3 128.3 379.7 154 382C179.7 384.3 205.3 381.7 231 386C256.7 390.3 282.3 401.7 308 394.5C333.7 387.3 359.3 361.7 385 348.3C410.7 335 436.3 334 462 336.5C487.7 339 513.3 345 539 350.7C564.7 356.3 590.3 361.7 616 362.5C641.7 363.3 667.3 359.7 693 355.8C718.7 352 744.3 348 770 346.2C795.7 344.3 821.3 344.7 847 351.5C872.7 358.3 898.3 371.7 911.2 378.3L924 385L924 501L911.2 501C898.3 501 872.7 501 847 501C821.3 501 795.7 501 770 501C744.3 501 718.7 501 693 501C667.3 501 641.7 501 616 501C590.3 501 564.7 501 539 501C513.3 501 487.7 501 462 501C436.3 501 410.7 501 385 501C359.3 501 333.7 501 308 501C282.3 501 256.7 501 231 501C205.3 501 179.7 501 154 501C128.3 501 102.7 501 77 501C51.3 501 25.7 501 12.8 501L0 501Z" fill="#90b6ee" stroke-linecap="round" stroke-linejoin="miter"></path></svg>