<svg id="visual" viewBox="0 0 1024 600" width="1024" height="600" xmlns="http://www.w3.org/2000/svg" xmlns:xlink="http://www.w3.org/1999/xlink" version="1.1"><rect x="0" y="0" width="1024" height="600" fill="#002233"></rect><path d="M0 332L14.2 344.7C28.3 357.3 56.7 382.7 85.2 403.2C113.7 423.7 142.3 439.3 170.8 438.5C199.3 437.7 227.7 420.3 256 396C284.3 371.7 312.7 340.3 341.2 327C369.7 313.7 398.3 318.3 426.8 334.5C455.3 350.7 483.7 378.3 512 375.5C540.3 372.7 568.7 339.3 597.2 336.5C625.7 333.7 654.3 361.3 682.8 375.2C711.3 389 739.7 389 768 396.2C796.3 403.3 824.7 417.7 853.2 406.8C881.7 396 910.3 360 938.8 350C967.3 340 995.7 356 1009.8 364L1024 372L1024 601L1009.8 601C995.7 601 967.3 601 938.8 601C910.3 601 881.7 601 853.2 601C824.7 601 796.3 601 768 601C739.7 601 711.3 601 682.8 601C654.3 601 625.7 601 597.2 601C568.7 601 540.3 601 512 601C483.7 601 455.3 601 426.8 601C398.3 601 369.7 601 341.2 601C312.7 601 284.3 601 256 601C227.7 601 199.3 601 170.8 601C142.3 601 113.7 601 85.2 601C56.7 601 28.3 601 14.2 601L0 601Z" fill="#0066FF" stroke-linecap="round" stroke-linejoin="miter"></path></svg>