<svg id="visual" viewBox="0 0 900 450" width="900" height="450" xmlns="http://www.w3.org/2000/svg" xmlns:xlink="http://www.w3.org/1999/xlink" version="1.1"><rect x="0" y="0" width="900" height="450" fill="#90b6ee"></rect><path d="M0 273L12.5 266.3C25 259.7 50 246.3 75 243.3C100 240.3 125 247.7 150 236.3C175 225 200 195 225 191.5C250 188 275 211 300 214.2C325 217.3 350 200.7 375 188.7C400 176.7 425 169.3 450 182.8C475 196.3 500 230.7 525 224.7C550 218.7 575 172.3 600 170.8C625 169.3 650 212.7 675 223C700 233.3 725 210.7 750 206.7C775 202.7 800 217.3 825 211.5C850 205.7 875 179.3 887.5 166.2L900 153L900 0L887.5 0C875 0 850 0 825 0C800 0 775 0 750 0C725 0 700 0 675 0C650 0 625 0 600 0C575 0 550 0 525 0C500 0 475 0 450 0C425 0 400 0 375 0C350 0 325 0 300 0C275 0 250 0 225 0C200 0 175 0 150 0C125 0 100 0 75 0C50 0 25 0 12.5 0L0 0Z" fill="#172b35" stroke-linecap="round" stroke-linejoin="miter"></path></svg>