<svg id="visual" viewBox="0 0 900 450" width="900" height="450" xmlns="http://www.w3.org/2000/svg" xmlns:xlink="http://www.w3.org/1999/xlink" version="1.1"><rect x="0" y="0" width="900" height="450" fill="#172b35"></rect><path d="M0 117L12.5 115.2C25 113.3 50 109.7 75 101.7C100 93.7 125 81.3 150 83.3C175 85.3 200 101.7 225 109.5C250 117.3 275 116.7 300 111.5C325 106.3 350 96.7 375 94.7C400 92.7 425 98.3 450 96.8C475 95.3 500 86.7 525 88.3C550 90 575 102 600 101C625 100 650 86 675 81.7C700 77.3 725 82.7 750 79.7C775 76.7 800 65.3 825 59.8C850 54.3 875 54.7 887.5 54.8L900 55L900 0L887.5 0C875 0 850 0 825 0C800 0 775 0 750 0C725 0 700 0 675 0C650 0 625 0 600 0C575 0 550 0 525 0C500 0 475 0 450 0C425 0 400 0 375 0C350 0 325 0 300 0C275 0 250 0 225 0C200 0 175 0 150 0C125 0 100 0 75 0C50 0 25 0 12.5 0L0 0Z" fill="#90b6ee" stroke-linecap="round" stroke-linejoin="miter"></path></svg>