<svg id="visual" viewBox="0 0 900 450" width="900" height="450" xmlns="http://www.w3.org/2000/svg" xmlns:xlink="http://www.w3.org/1999/xlink" version="1.1"><g stroke-width="1" stroke-linejoin="bevel"><path d="M464.3 327.5L574.3 450L569.3 250Z" fill="#90b6ee" stroke="#90b6ee"></path><path d="M574.3 450L671.9 450L569.3 250Z" fill="#90b6ee" stroke="#90b6ee"></path><path d="M705.4 240L623.9 192L569.3 250Z" fill="#90b6ee" stroke="#90b6ee"></path><path d="M569.3 250L434.7 56.5L464.3 327.5Z" fill="#90b6ee" stroke="#90b6ee"></path><path d="M671.9 450L719.9 269.5L569.3 250Z" fill="#90b6ee" stroke="#90b6ee"></path><path d="M719.9 269.5L705.4 240L569.3 250Z" fill="#90b6ee" stroke="#90b6ee"></path><path d="M464.3 327.5L406.7 450L574.3 450Z" fill="#90b6ee" stroke="#90b6ee"></path><path d="M572.9 57.5L584.3 147.5L691.4 0Z" fill="#90b6ee" stroke="#90b6ee"></path><path d="M623.9 192L584.3 147.5L569.3 250Z" fill="#90b6ee" stroke="#90b6ee"></path><path d="M671.9 450L754.4 450L719.9 269.5Z" fill="#90b6ee" stroke="#90b6ee"></path><path d="M314.7 277L322.7 310.5L464.3 327.5Z" fill="#90b6ee" stroke="#90b6ee"></path><path d="M464.3 327.5L322.7 310.5L406.7 450Z" fill="#90b6ee" stroke="#90b6ee"></path><path d="M754.4 450L807.4 278.5L719.9 269.5Z" fill="#90b6ee" stroke="#90b6ee"></path><path d="M719.9 269.5L807.4 278.5L705.4 240Z" fill="#90b6ee" stroke="#90b6ee"></path><path d="M777.4 88.5L584.3 147.5L623.9 192Z" fill="#90b6ee" stroke="#90b6ee"></path><path d="M434.7 56.5L314.7 277L464.3 327.5Z" fill="#90b6ee" stroke="#90b6ee"></path><path d="M322.7 310.5L291.1 450L406.7 450Z" fill="#90b6ee" stroke="#90b6ee"></path><path d="M228.1 305.5L291.1 450L322.7 310.5Z" fill="#90b6ee" stroke="#90b6ee"></path><path d="M777.4 88.5L623.9 192L705.4 240Z" fill="#90b6ee" stroke="#90b6ee"></path><path d="M584.3 147.5L434.7 56.5L569.3 250Z" fill="#90b6ee" stroke="#90b6ee"></path><path d="M572.9 57.5L434.7 56.5L584.3 147.5Z" fill="#90b6ee" stroke="#90b6ee"></path><path d="M199.1 118.5L253.1 265L314.7 277Z" fill="#90b6ee" stroke="#90b6ee"></path><path d="M314.7 277L253.1 265L322.7 310.5Z" fill="#90b6ee" stroke="#90b6ee"></path><path d="M253.1 265L228.1 305.5L322.7 310.5Z" fill="#90b6ee" stroke="#90b6ee"></path><path d="M807.4 278.5L777.4 88.5L705.4 240Z" fill="#90b6ee" stroke="#90b6ee"></path><path d="M754.4 450L900 317.5L807.4 278.5Z" fill="#90b6ee" stroke="#90b6ee"></path><path d="M807.4 278.5L900 129.5L777.4 88.5Z" fill="#90b6ee" stroke="#90b6ee"></path><path d="M572.9 57.5L454.3 0L434.7 56.5Z" fill="#90b6ee" stroke="#90b6ee"></path><path d="M691.4 0L564.9 0L572.9 57.5Z" fill="#90b6ee" stroke="#90b6ee"></path><path d="M900 317.5L900 255L807.4 278.5Z" fill="#90b6ee" stroke="#90b6ee"></path><path d="M754.4 450L900 450L900 317.5Z" fill="#90b6ee" stroke="#90b6ee"></path><path d="M564.9 0L454.3 0L572.9 57.5Z" fill="#90b6ee" stroke="#90b6ee"></path><path d="M434.7 56.5L199.1 118.5L314.7 277Z" fill="#90b6ee" stroke="#90b6ee"></path><path d="M777.4 88.5L691.4 0L584.3 147.5Z" fill="#90b6ee" stroke="#90b6ee"></path><path d="M228.1 305.5L201.6 450L291.1 450Z" fill="#90b6ee" stroke="#90b6ee"></path><path d="M454.3 0L380.7 0L434.7 56.5Z" fill="#90b6ee" stroke="#90b6ee"></path><path d="M253.1 265L94.6 238L228.1 305.5Z" fill="#90b6ee" stroke="#90b6ee"></path><path d="M900 255L900 129.5L807.4 278.5Z" fill="#90b6ee" stroke="#90b6ee"></path><path d="M777.4 88.5L900 0L691.4 0Z" fill="#90b6ee" stroke="#90b6ee"></path><path d="M380.7 0L199.1 118.5L434.7 56.5Z" fill="#90b6ee" stroke="#90b6ee"></path><path d="M228.1 305.5L75.6 398.5L201.6 450Z" fill="#90b6ee" stroke="#90b6ee"></path><path d="M199.1 118.5L134.6 174.5L253.1 265Z" fill="#90b6ee" stroke="#90b6ee"></path><path d="M380.7 0L250.1 0L199.1 118.5Z" fill="#90b6ee" stroke="#90b6ee"></path><path d="M199.1 118.5L121.6 0L134.6 174.5Z" fill="#90b6ee" stroke="#90b6ee"></path><path d="M134.6 174.5L94.6 238L253.1 265Z" fill="#90b6ee" stroke="#90b6ee"></path><path d="M900 129.5L900 0L777.4 88.5Z" fill="#90b6ee" stroke="#90b6ee"></path><path d="M94.6 238L75.6 398.5L228.1 305.5Z" fill="#90b6ee" stroke="#90b6ee"></path><path d="M0 39.5L0 274L94.6 238Z" fill="#90b6ee" stroke="#90b6ee"></path><path d="M0 274L0 378.5L75.6 398.5Z" fill="#90b6ee" stroke="#90b6ee"></path><path d="M250.1 0L121.6 0L199.1 118.5Z" fill="#90b6ee" stroke="#90b6ee"></path><path d="M0 274L75.6 398.5L94.6 238Z" fill="#90b6ee" stroke="#90b6ee"></path><path d="M75.6 398.5L0 450L201.6 450Z" fill="#90b6ee" stroke="#90b6ee"></path><path d="M0 39.5L94.6 238L134.6 174.5Z" fill="#90b6ee" stroke="#90b6ee"></path><path d="M0 378.5L0 450L75.6 398.5Z" fill="#90b6ee" stroke="#90b6ee"></path><path d="M121.6 0L0 39.5L134.6 174.5Z" fill="#90b6ee" stroke="#90b6ee"></path><path d="M121.6 0L0 0L0 39.5Z" fill="#90b6ee" stroke="#90b6ee"></path></g></svg>