<svg id="visual" viewBox="0 0 900 450" width="900" height="450" xmlns="http://www.w3.org/2000/svg" xmlns:xlink="http://www.w3.org/1999/xlink" version="1.1"><path d="M0 96L21.5 93.7C43 91.3 86 86.7 128.8 81.3C171.7 76 214.3 70 257.2 68.5C300 67 343 70 385.8 67C428.7 64 471.3 55 514.2 56.5C557 58 600 70 642.8 74.5C685.7 79 728.3 76 771.2 76.8C814 77.7 857 82.3 878.5 84.7L900 87L900 0L878.5 0C857 0 814 0 771.2 0C728.3 0 685.7 0 642.8 0C600 0 557 0 514.2 0C471.3 0 428.7 0 385.8 0C343 0 300 0 257.2 0C214.3 0 171.7 0 128.8 0C86 0 43 0 21.5 0L0 0Z" fill="#90b6ee"></path><path d="M0 208L21.5 210.3C43 212.7 86 217.3 128.8 215.2C171.7 213 214.3 204 257.2 204C300 204 343 213 385.8 209.2C428.7 205.3 471.3 188.7 514.2 181.2C557 173.7 600 175.3 642.8 179.8C685.7 184.3 728.3 191.7 771.2 197.7C814 203.7 857 208.3 878.5 210.7L900 213L900 85L878.5 82.7C857 80.3 814 75.7 771.2 74.8C728.3 74 685.7 77 642.8 72.5C600 68 557 56 514.2 54.5C471.3 53 428.7 62 385.8 65C343 68 300 65 257.2 66.5C214.3 68 171.7 74 128.8 79.3C86 84.7 43 89.3 21.5 91.7L0 94Z" fill="#7099c6"></path><path d="M0 334L21.5 329.5C43 325 86 316 128.8 307.8C171.7 299.7 214.3 292.3 257.2 293.2C300 294 343 303 385.8 301.5C428.7 300 471.3 288 514.2 287.2C557 286.3 600 296.7 642.8 294.3C685.7 292 728.3 277 771.2 274C814 271 857 280 878.5 284.5L900 289L900 211L878.5 208.7C857 206.3 814 201.7 771.2 195.7C728.3 189.7 685.7 182.3 642.8 177.8C600 173.3 557 171.7 514.2 179.2C471.3 186.7 428.7 203.3 385.8 207.2C343 211 300 202 257.2 202C214.3 202 171.7 211 128.8 213.2C86 215.3 43 210.7 21.5 208.3L0 206Z" fill="#557c9f"></path><path d="M0 366L21.5 363.7C43 361.3 86 356.7 128.8 353.7C171.7 350.7 214.3 349.3 257.2 350.2C300 351 343 354 385.8 352.5C428.7 351 471.3 345 514.2 342C557 339 600 339 642.8 336C685.7 333 728.3 327 771.2 324.7C814 322.3 857 323.7 878.5 324.3L900 325L900 287L878.5 282.5C857 278 814 269 771.2 272C728.3 275 685.7 290 642.8 292.3C600 294.7 557 284.3 514.2 285.2C471.3 286 428.7 298 385.8 299.5C343 301 300 292 257.2 291.2C214.3 290.3 171.7 297.7 128.8 305.8C86 314 43 323 21.5 327.5L0 332Z" fill="#3c6079"></path><path d="M0 406L21.5 405.3C43 404.7 86 403.3 128.8 404.2C171.7 405 214.3 408 257.2 406.5C300 405 343 399 385.8 399C428.7 399 471.3 405 514.2 408C557 411 600 411 642.8 408C685.7 405 728.3 399 771.2 397.5C814 396 857 399 878.5 400.5L900 402L900 323L878.5 322.3C857 321.7 814 320.3 771.2 322.7C728.3 325 685.7 331 642.8 334C600 337 557 337 514.2 340C471.3 343 428.7 349 385.8 350.5C343 352 300 349 257.2 348.2C214.3 347.3 171.7 348.7 128.8 351.7C86 354.7 43 359.3 21.5 361.7L0 364Z" fill="#284556"></path><path d="M0 451L21.5 451C43 451 86 451 128.8 451C171.7 451 214.3 451 257.2 451C300 451 343 451 385.8 451C428.7 451 471.3 451 514.2 451C557 451 600 451 642.8 451C685.7 451 728.3 451 771.2 451C814 451 857 451 878.5 451L900 451L900 400L878.5 398.5C857 397 814 394 771.2 395.5C728.3 397 685.7 403 642.8 406C600 409 557 409 514.2 406C471.3 403 428.7 397 385.8 397C343 397 300 403 257.2 404.5C214.3 406 171.7 403 128.8 402.2C86 401.3 43 402.7 21.5 403.3L0 404Z" fill="#172b35"></path></svg>