<svg id="visual" viewBox="0 0 900 450" width="900" height="450" xmlns="http://www.w3.org/2000/svg" xmlns:xlink="http://www.w3.org/1999/xlink" version="1.1"><rect x="0" y="0" width="900" height="450" fill="#90b6ee"></rect><path d="M0 179L12.5 175.2C25 171.3 50 163.7 75 161.5C100 159.3 125 162.7 150 160.7C175 158.7 200 151.3 225 150.7C250 150 275 156 300 156.8C325 157.7 350 153.3 375 158.8C400 164.3 425 179.7 450 186.2C475 192.7 500 190.3 525 190.7C550 191 575 194 600 191.8C625 189.7 650 182.3 675 180.8C700 179.3 725 183.7 750 180.3C775 177 800 166 825 157.7C850 149.3 875 143.7 887.5 140.8L900 138L900 0L887.5 0C875 0 850 0 825 0C800 0 775 0 750 0C725 0 700 0 675 0C650 0 625 0 600 0C575 0 550 0 525 0C500 0 475 0 450 0C425 0 400 0 375 0C350 0 325 0 300 0C275 0 250 0 225 0C200 0 175 0 150 0C125 0 100 0 75 0C50 0 25 0 12.5 0L0 0Z" fill="#425f71"></path><path d="M0 106L12.5 107.5C25 109 50 112 75 113.7C100 115.3 125 115.7 150 122.7C175 129.7 200 143.3 225 148.2C250 153 275 149 300 146.8C325 144.7 350 144.3 375 140.3C400 136.3 425 128.7 450 121.3C475 114 500 107 525 108.2C550 109.3 575 118.7 600 127.7C625 136.7 650 145.3 675 141.7C700 138 725 122 750 123.3C775 124.7 800 143.3 825 146.3C850 149.3 875 136.7 887.5 130.3L900 124L900 0L887.5 0C875 0 850 0 825 0C800 0 775 0 750 0C725 0 700 0 675 0C650 0 625 0 600 0C575 0 550 0 525 0C500 0 475 0 450 0C425 0 400 0 375 0C350 0 325 0 300 0C275 0 250 0 225 0C200 0 175 0 150 0C125 0 100 0 75 0C50 0 25 0 12.5 0L0 0Z" fill="#2c4656"></path><path d="M0 98L12.5 94.3C25 90.7 50 83.3 75 83.3C100 83.3 125 90.7 150 92.2C175 93.7 200 89.3 225 89.5C250 89.7 275 94.3 300 99.5C325 104.7 350 110.3 375 111.8C400 113.3 425 110.7 450 103.5C475 96.3 500 84.7 525 81.7C550 78.7 575 84.3 600 82.7C625 81 650 72 675 75.5C700 79 725 95 750 103.7C775 112.3 800 113.7 825 114.7C850 115.7 875 116.3 887.5 116.7L900 117L900 0L887.5 0C875 0 850 0 825 0C800 0 775 0 750 0C725 0 700 0 675 0C650 0 625 0 600 0C575 0 550 0 525 0C500 0 475 0 450 0C425 0 400 0 375 0C350 0 325 0 300 0C275 0 250 0 225 0C200 0 175 0 150 0C125 0 100 0 75 0C50 0 25 0 12.5 0L0 0Z" fill="#203543"></path><path d="M0 53L12.5 50.8C25 48.7 50 44.3 75 47C100 49.7 125 59.3 150 58.7C175 58 200 47 225 44C250 41 275 46 300 51.5C325 57 350 63 375 62.8C400 62.7 425 56.3 450 52.3C475 48.3 500 46.7 525 50C550 53.3 575 61.7 600 65C625 68.3 650 66.7 675 65C700 63.3 725 61.7 750 59.8C775 58 800 56 825 55.8C850 55.7 875 57.3 887.5 58.2L900 59L900 0L887.5 0C875 0 850 0 825 0C800 0 775 0 750 0C725 0 700 0 675 0C650 0 625 0 600 0C575 0 550 0 525 0C500 0 475 0 450 0C425 0 400 0 375 0C350 0 325 0 300 0C275 0 250 0 225 0C200 0 175 0 150 0C125 0 100 0 75 0C50 0 25 0 12.5 0L0 0Z" fill="#1c2b36"></path></svg>